<?xml version="1.0" standalone="no"?>
<!DOCTYPE svg PUBLIC "-//W3C//DTD SVG 20010904//EN"
 "http://www.w3.org/TR/2001/REC-SVG-20010904/DTD/svg10.dtd">
<svg version="1.0" xmlns="http://www.w3.org/2000/svg"
 width="500.000000pt" height="150.000000pt" viewBox="0 0 500.000000 150.000000"
 preserveAspectRatio="xMidYMid meet">

<g transform="translate(0.000000,150.000000) scale(0.100000,-0.100000)"
fill="#000000" stroke="none">
<path d="M523 1472 c-74 -39 -177 -127 -230 -197 -96 -128 -146 -261 -146
-392 0 -131 35 -184 187 -280 110 -69 175 -121 186 -148 4 -11 4 -43 0 -71
-22 -136 -57 -194 -116 -194 -20 0 -33 4 -30 9 8 12 -30 44 -43 37 -6 -4 -8 8
-6 31 3 21 2 30 -1 20 -3 -9 -10 -17 -15 -17 -6 0 -7 23 -3 60 5 42 3 60 -5
60 -6 0 -11 7 -11 15 0 9 -14 31 -32 50 -38 43 -83 47 -123 13 -27 -25 -75
-149 -75 -198 0 -81 58 -173 144 -229 l62 -41 131 0 130 0 61 64 c34 35 62 69
62 75 0 6 18 37 40 69 22 33 42 76 46 100 4 23 11 45 15 48 13 7 11 74 -1 74
-12 0 -22 -24 -40 -90 -16 -60 -50 -138 -67 -151 -7 -6 -11 -15 -8 -19 2 -4
-6 -17 -20 -30 -20 -19 -26 -20 -38 -9 -13 12 -12 18 4 49 67 128 93 216 86
281 -4 28 -1 51 6 58 8 8 8 11 -2 11 -7 0 -29 17 -49 38 -20 21 -50 44 -67 52
-16 8 -44 24 -61 36 -17 13 -43 26 -56 29 -83 21 -163 147 -163 255 0 41 5 65
13 68 6 2 12 16 13 30 1 30 29 84 44 85 14 0 34 30 28 40 -8 13 28 35 49 29
10 -2 18 -8 18 -12 0 -4 18 -3 40 2 33 9 44 7 72 -10 18 -12 44 -32 57 -46 14
-14 30 -26 36 -26 34 0 95 78 95 122 0 10 3 18 8 18 4 0 8 38 8 85 1 47 -3 85
-7 85 -5 0 -9 8 -9 18 0 10 -6 30 -12 45 -12 25 -17 27 -83 26 -56 0 -80 -5
-122 -27z m177 -69 c0 -24 -25 -9 -28 17 -3 21 -2 22 12 11 9 -7 16 -20 16
-28z m15 -70 c9 -36 -14 -109 -44 -136 l-24 -22 7 45 c11 81 19 114 30 127 17
19 23 16 31 -14z m-482 -927 c7 -20 6 -31 -3 -39 -10 -9 -12 -7 -7 10 3 13 -1
24 -9 27 -17 7 -19 39 -2 34 6 -2 16 -17 21 -32z m32 -76 c8 -25 -3 -62 -16
-55 -12 8 -12 75 0 75 5 0 13 -9 16 -20z m21 -117 c4 -16 12 -31 18 -35 8 -6
8 -8 -1 -8 -18 0 -43 29 -43 51 0 29 19 23 26 -8z m283 -97 c10 -12 8 -13 -8
-9 -12 3 -21 9 -21 14 0 14 16 11 29 -5z"/>
<path d="M3747 1434 c-12 -13 4 -24 34 -24 40 0 66 -15 83 -48 12 -22 16 -24
21 -10 6 16 -18 65 -40 80 -12 9 -89 10 -98 2z"/>
<path d="M3686 1413 c-3 -4 -12 -8 -19 -9 -7 -1 -34 -13 -62 -25 -27 -13 -54
-23 -58 -24 -4 0 -11 -4 -15 -10 -4 -5 -11 -10 -17 -10 -5 0 -26 -7 -45 -16
-19 -9 -54 -24 -77 -34 -67 -28 -71 -46 -88 -423 -8 -180 -20 -415 -25 -522
-15 -283 -12 -290 114 -290 191 0 308 81 355 245 10 35 16 73 37 215 3 19 10
45 16 57 6 12 8 35 5 51 -4 18 0 37 8 49 15 21 10 93 -6 93 -9 0 -14 -23 -29
-135 -19 -145 -36 -209 -51 -199 -5 3 -9 1 -9 -5 0 -5 5 -13 10 -16 18 -11
-14 -115 -35 -115 -18 0 -28 32 -13 41 7 5 14 19 15 31 1 13 9 61 18 108 17
91 25 152 50 350 8 69 19 152 25 185 5 33 14 118 20 188 11 118 10 130 -6 148
-17 19 -72 26 -89 11 -6 -5 -37 -17 -70 -27 -33 -11 -66 -23 -73 -29 -7 -5
-15 -6 -19 -3 -3 4 -12 2 -19 -4 -15 -12 -44 -5 -44 11 0 5 3 9 8 8 4 -1 45
16 92 39 47 23 94 43 104 45 23 4 34 28 14 28 -8 0 -18 -3 -22 -7z m8 -368
c-2 -78 -23 -236 -44 -325 -10 -43 -36 -164 -47 -223 -3 -15 -9 -30 -14 -33
-5 -3 -9 -13 -9 -23 0 -21 -49 -121 -59 -121 -4 0 -17 9 -29 20 -12 12 -22 16
-22 10 0 -5 -3 -10 -7 -10 -11 0 -3 234 8 241 5 3 9 66 8 140 -1 74 3 173 7
221 8 73 13 92 34 113 34 34 119 75 150 72 25 -2 25 -4 24 -82z m-258 -242
c-4 -49 -9 -119 -12 -158 -12 -157 -11 -285 3 -296 7 -6 13 -17 13 -25 0 -7 8
-19 18 -26 11 -7 24 -23 30 -35 11 -20 10 -22 -15 -19 -16 1 -33 -1 -39 -6
-15 -11 -44 54 -51 114 -3 27 0 88 6 136 7 48 14 130 16 182 6 139 15 220 27
220 6 0 7 -33 4 -87z"/>
<path d="M3520 505 c0 -8 5 -15 10 -15 6 0 10 7 10 15 0 8 -4 15 -10 15 -5 0
-10 -7 -10 -15z"/>
<path d="M973 1372 c-62 -4 -73 -16 -102 -107 -56 -180 -75 -467 -51 -776 19
-231 51 -315 136 -348 27 -11 38 -9 80 11 84 39 123 99 122 188 l0 55 -9 -42
c-11 -56 -35 -107 -62 -129 -12 -11 -19 -15 -15 -10 4 5 0 14 -8 21 -15 11
-15 14 -1 36 9 14 17 52 19 93 l3 68 38 -5 c36 -5 38 -4 33 16 -3 12 -6 25 -6
30 0 14 -53 7 -79 -12 -40 -29 -75 -35 -90 -17 -8 9 -19 16 -25 16 -16 0 -12
176 9 345 0 6 5 58 9 117 7 83 12 111 26 123 18 16 20 14 44 -24 40 -62 79
-53 125 29 19 34 27 155 11 174 -6 9 -9 19 -6 24 11 18 -93 112 -123 112 -11
0 -21 3 -23 8 -1 4 -27 6 -55 4z m72 -56 c56 -19 97 -78 103 -150 2 -31 1 -63
-4 -73 -4 -10 -8 -26 -8 -35 -1 -10 -5 -17 -11 -15 -5 1 -10 34 -10 72 0 86
-23 137 -77 171 -21 13 -38 29 -38 34 0 12 -3 13 45 -4z m-82 -330 c6 -16 -7
-64 -29 -109 -9 -19 -11 -35 -4 -53 14 -35 12 -44 -6 -44 -9 0 -12 -5 -8 -12
8 -13 7 -80 -2 -111 -9 -29 -24 -8 -24 33 0 21 -4 42 -10 45 -14 8 -13 100 1
144 23 72 28 79 28 44 1 -18 6 -33 12 -33 8 0 10 17 6 55 -5 49 -3 55 13 55
10 0 20 -6 23 -14z m-96 -353 c-4 -17 -4 -17 -12 0 -4 9 -4 25 0 35 8 16 8 16
12 0 3 -10 3 -26 0 -35z m45 -145 c8 -21 -2 -38 -23 -38 -22 0 -23 4 -7 30 15
23 24 25 30 8z m18 -67 c0 -11 5 -23 10 -26 17 -10 11 -25 -10 -25 -14 0 -18
5 -13 17 5 12 2 15 -10 10 -20 -8 -21 -3 -5 23 16 25 28 26 28 1z m86 -34 c6
2 14 -5 17 -16 4 -17 -1 -22 -29 -27 -19 -3 -38 -4 -41 0 -4 3 1 6 10 6 25 0
31 20 11 36 -18 14 -18 15 1 6 11 -5 25 -7 31 -5z"/>
<path d="M4810 1350 c-61 -15 -68 -39 -94 -310 -40 -407 -56 -627 -49 -663 8
-40 37 -53 63 -27 11 11 20 26 20 34 0 7 7 19 15 26 7 6 17 33 21 58 3 26 10
52 14 57 4 6 11 35 15 65 4 30 11 62 16 71 4 9 13 47 19 84 6 38 14 73 17 78
4 6 7 22 9 36 1 14 8 46 14 71 7 25 13 59 14 77 1 17 5 35 9 39 4 4 7 19 7 34
0 14 4 30 9 35 4 6 11 27 14 49 6 37 5 38 -12 22 -11 -10 -19 -27 -19 -39 0
-24 -10 -74 -20 -97 -3 -8 -7 -24 -9 -35 -11 -77 -17 -96 -31 -107 -18 -15
-17 -5 17 147 10 50 18 121 18 158 -2 62 -4 69 -32 92 l-30 24 36 1 c37 0 66
-21 55 -39 -8 -12 14 -61 27 -61 20 0 -4 76 -34 103 -31 28 -42 30 -99 17z
m30 -504 c0 -8 -4 -18 -10 -21 -5 -3 -10 3 -10 14 0 12 5 21 10 21 6 0 10 -6
10 -14z m-10 -65 c0 -6 -4 -13 -10 -16 -5 -3 -10 1 -10 9 0 9 5 16 10 16 6 0
10 -4 10 -9z m-29 -84 c-8 -8 -11 -7 -11 4 0 20 13 34 18 19 3 -7 -1 -17 -7
-23z m-15 -78 l-16 -23 0 25 c0 30 10 43 23 30 6 -6 3 -18 -7 -32z m-11 -56
c-8 -32 -13 -39 -21 -30 -10 9 5 57 17 57 7 0 9 -10 4 -27z m-20 -90 c-9 -62
-15 -83 -24 -83 -8 0 -7 29 4 88 11 58 28 54 20 -5z"/>
<path d="M2197 1326 c-4 -10 -18 -15 -42 -14 -43 2 -71 -22 -85 -70 -5 -20
-15 -269 -21 -554 -10 -477 -10 -521 6 -544 22 -34 60 -46 120 -39 142 18 276
96 300 176 4 13 14 32 23 42 12 13 13 20 4 29 -6 6 -13 10 -15 7 -2 -2 -13
-20 -25 -39 l-22 -35 7 55 c11 78 8 169 -7 214 -13 41 -74 116 -94 116 -15 0
-46 36 -39 44 14 13 35 6 29 -10 -4 -12 -2 -15 9 -11 9 4 32 -11 59 -39 50
-49 76 -115 76 -190 0 -58 8 -78 26 -63 17 14 19 39 3 39 -6 0 -9 21 -8 54 2
32 -3 61 -10 69 -6 8 -11 19 -9 23 1 5 -6 25 -16 45 -26 55 -89 106 -123 100
-32 -5 -9 44 42 91 30 28 55 56 55 63 0 6 11 25 25 41 24 28 34 64 16 64 -5 0
-19 -16 -32 -35 -29 -43 -37 -44 -31 -5 2 17 7 30 11 30 11 0 3 118 -10 142
-24 45 -85 110 -119 128 l-35 18 28 7 c18 5 35 2 52 -9 13 -9 31 -16 39 -16 7
0 16 -6 19 -14 3 -8 15 -20 27 -26 20 -11 21 -10 9 12 -27 52 -115 106 -190
115 -36 4 -47 2 -52 -11z m83 -32 c0 -11 -34 -33 -50 -34 -23 0 -43 16 -36 29
7 11 86 16 86 5z m33 -182 c39 -35 7 -205 -43 -232 -29 -16 -51 -12 -57 10 -3
11 -10 20 -17 20 -7 0 -11 31 -12 93 -1 86 0 93 24 115 29 27 71 25 105 -6z
m-160 3 c-3 -9 -8 -14 -10 -11 -3 3 -2 9 2 15 9 16 15 13 8 -4z m2 -57 c4 -18
2 -44 -3 -58 -10 -27 2 -72 40 -143 11 -21 18 -41 14 -44 -12 -12 -55 8 -62
30 -4 12 -11 25 -16 28 -11 7 -15 190 -5 207 14 21 26 13 32 -20z m166 -485
c49 -55 60 -110 36 -191 -16 -54 -32 -68 -84 -75 -64 -8 -73 13 -68 149 4 81
9 112 22 126 24 27 65 23 94 -9z m-161 -128 c0 -24 5 -47 10 -50 6 -3 10 -19
10 -35 0 -45 17 -79 45 -90 14 -5 25 -11 25 -14 0 -2 3 -11 6 -20 11 -29 -34
-18 -73 18 -35 32 -37 37 -48 130 -7 62 -8 99 -2 105 17 17 27 1 27 -44z"/>
<path d="M4355 1305 c-47 -48 -57 -99 -57 -275 0 -122 4 -173 20 -240 62 -262
112 -360 181 -360 37 0 94 63 88 98 -2 12 0 22 4 22 5 0 9 -7 9 -16 0 -9 6
-14 13 -12 9 3 14 58 20 198 8 168 7 198 -7 227 -9 19 -16 49 -16 68 0 18 -4
36 -9 39 -5 3 -11 20 -14 38 -8 53 -14 73 -37 119 -51 105 -69 123 -124 124
-34 1 -47 -5 -71 -30z m88 3 c55 -31 50 -62 -5 -36 -54 26 -56 27 -38 38 19
12 16 12 43 -2z m69 -90 c8 -13 22 -50 32 -83 11 -33 22 -69 27 -80 4 -11 10
-40 13 -65 3 -25 8 -71 12 -102 6 -55 -1 -116 -13 -105 -3 3 -9 55 -14 114 -4
59 -10 122 -13 138 -14 78 -19 96 -27 101 -5 3 -9 13 -9 22 0 9 -9 28 -20 42
-11 14 -20 28 -20 33 0 15 18 6 32 -15z m-48 -140 c9 -17 16 -39 16 -48 0 -9
3 -20 8 -24 4 -4 8 -27 9 -49 1 -23 5 -70 9 -104 9 -86 -2 -154 -27 -160 -23
-6 -23 -12 -4 -37 21 -28 19 -36 -9 -36 -25 0 -66 45 -66 72 0 8 -3 18 -7 22
-5 4 -8 11 -9 14 0 4 -3 14 -7 22 -12 33 -21 100 -22 185 -2 78 1 94 20 122
12 18 25 30 28 26 4 -3 7 1 7 10 0 30 37 19 54 -15z m128 -429 c-7 -10 -12
-26 -12 -34 0 -8 -7 -15 -16 -15 -12 0 -15 6 -10 23 4 12 8 33 11 47 2 14 7
43 11 65 l8 40 9 -54 c7 -39 7 -59 -1 -72z m28 -54 c0 -14 -4 -25 -10 -25 -11
0 -14 33 -3 43 11 11 13 8 13 -18z"/>
<path d="M4399 853 c-3 -19 4 -59 11 -68 4 -5 10 -19 13 -30 3 -11 4 3 2 30
-2 28 -4 56 -4 63 -1 13 -20 17 -22 5z"/>
<path d="M4435 710 c-3 -5 -1 -10 4 -10 6 0 11 5 11 10 0 6 -2 10 -4 10 -3 0
-8 -4 -11 -10z"/>
<path d="M1349 1304 c-49 -26 -104 -174 -124 -333 -25 -196 -27 -308 -10 -416
39 -248 91 -316 185 -243 29 23 59 74 60 103 0 12 4 25 8 30 5 6 14 30 21 55
7 25 19 52 26 60 7 8 15 35 18 60 3 25 11 74 18 110 7 36 13 101 13 145 0 90
-14 255 -22 255 -10 0 -31 -36 -32 -53 0 -33 -18 -8 -22 31 -3 35 -1 38 18 34
25 -5 43 30 26 51 -5 7 -13 26 -16 44 -15 68 -101 102 -167 67z m95 -30 c23
-22 20 -37 -4 -24 -11 6 -20 17 -20 25 0 19 5 19 24 -1z m44 -64 c8 -13 9 -26
4 -37 -10 -17 -16 -11 -26 30 -8 32 4 36 22 7z m-73 -161 c15 -23 24 -226 15
-309 -11 -92 -31 -162 -49 -168 -6 -2 -19 14 -28 35 -14 31 -18 69 -18 198 0
145 8 209 31 247 7 12 42 10 49 -3z m-115 -284 c0 -114 -5 -145 -21 -145 -10
0 -13 229 -3 254 15 38 24 -4 24 -109z m201 8 c-8 -14 -10 -8 -11 28 0 25 3
49 8 53 11 12 14 -62 3 -81z m-1 -97 c0 -14 -5 -28 -11 -32 -6 -3 -9 -19 -5
-35 3 -15 1 -31 -4 -34 -6 -3 -10 -17 -10 -30 0 -13 -5 -27 -10 -30 -6 -4 -8
-15 -5 -25 3 -10 1 -21 -4 -24 -17 -11 -19 8 -6 64 7 30 18 81 25 113 13 58
30 77 30 33z m-190 -85 c0 -11 14 -31 30 -44 32 -27 40 -57 16 -57 -19 0 -46
27 -46 46 0 8 -4 14 -10 14 -5 0 -10 14 -10 30 0 17 5 30 10 30 6 0 10 -9 10
-19z m95 -221 c-3 -5 -10 -10 -16 -10 -5 0 -9 5 -9 10 0 6 7 10 16 10 8 0 12
-4 9 -10z"/>
<path d="M3870 1303 c-1 -9 -20 -197 -26 -253 -3 -19 -7 -62 -10 -95 -5 -56
-4 -59 11 -40 11 14 14 31 10 58 -5 24 -2 43 5 52 7 8 14 39 16 68 15 192 15
217 5 217 -6 0 -11 -3 -11 -7z"/>
<path d="M1840 1255 c-53 -35 -95 -84 -128 -150 -133 -266 -182 -809 -80 -897
35 -31 66 -22 124 35 53 53 154 227 154 266 0 11 4 22 9 25 5 3 16 47 26 98 9
51 20 102 25 113 25 58 32 354 10 418 -13 38 -64 97 -84 97 -8 0 -16 4 -18 9
-1 5 -19 -2 -38 -14z m81 -56 c15 -17 30 -47 34 -67 11 -52 7 -284 -5 -296 -5
-5 -7 -28 -3 -51 3 -26 1 -45 -6 -49 -6 -4 -11 -18 -11 -31 0 -13 -4 -26 -9
-29 -4 -3 -11 -25 -15 -48 -8 -52 -45 -148 -57 -148 -11 0 -11 2 2 58 7 26 17
54 24 62 12 15 31 129 40 240 2 30 9 100 14 155 6 63 6 104 0 110 -5 5 -9 17
-9 26 0 20 -32 79 -42 79 -5 0 -8 5 -8 10 0 19 23 10 51 -21z m-67 -262 c8
-57 -1 -156 -23 -242 -5 -22 -15 -60 -21 -85 -7 -25 -20 -61 -30 -80 -19 -37
-50 -53 -50 -26 0 9 -4 16 -10 16 -6 0 -10 31 -10 74 0 76 -15 110 -25 59 -4
-15 -10 -36 -16 -45 -12 -23 -12 -51 0 -64 5 -5 11 -22 13 -39 2 -16 10 -35
18 -42 8 -7 11 -13 6 -13 -5 0 -4 -6 2 -13 7 -8 6 -17 -3 -30 -12 -17 -14 -15
-35 17 -12 20 -18 41 -15 46 4 6 -1 20 -10 30 -14 15 -16 29 -11 64 4 25 12
48 17 52 7 4 8 25 4 55 -5 32 -3 54 4 63 6 8 11 27 11 42 -1 65 16 104 39 90
7 -5 8 -13 1 -25 -5 -10 -6 -21 -3 -25 4 -4 -1 -22 -11 -41 -10 -19 -16 -41
-13 -49 9 -24 35 -19 42 7 21 78 28 105 36 127 4 14 13 45 20 70 13 53 26 72
48 68 11 -2 19 -21 25 -61z m-14 -486 c0 -6 -4 -13 -10 -16 -5 -3 -10 1 -10 9
0 9 5 16 10 16 6 0 10 -4 10 -9z m-10 -41 c0 -5 -4 -10 -9 -10 -7 0 -12 -8
-25 -50 -1 -3 -7 -14 -13 -25 -12 -20 -12 -20 -13 2 0 12 4 24 9 28 5 3 12 19
16 35 6 27 35 44 35 20z"/>
<path d="M2958 1253 c-22 -24 -26 -40 -32 -118 -13 -180 -41 -281 -85 -305
-31 -16 -71 -12 -78 8 -4 9 -10 20 -15 23 -5 3 -11 45 -13 94 -3 48 -7 90 -10
93 -3 3 -5 -7 -5 -21 0 -15 -5 -47 -12 -71 -13 -51 1 -113 34 -142 19 -18 25
-40 8 -29 -5 3 -10 1 -10 -4 0 -22 -17 -10 -38 28 -26 45 -30 151 -10 257 11
61 11 64 -16 99 l-28 36 29 -7 c33 -8 53 -30 53 -58 0 -12 6 -43 14 -71 l13
-50 -2 89 c-2 82 -4 91 -27 107 -35 26 -101 8 -127 -35 -33 -53 -43 -253 -22
-437 1 -3 15 -24 32 -45 46 -58 69 -118 69 -182 0 -74 -23 -137 -77 -209 -24
-32 -43 -67 -43 -79 0 -21 51 -74 70 -74 20 0 60 24 60 36 0 8 17 24 38 38 20
13 42 30 49 37 27 34 82 151 77 164 -4 9 -2 21 4 28 5 6 12 51 16 99 6 75 5
88 -8 88 -12 0 -15 -11 -14 -45 0 -25 -5 -52 -12 -60 -8 -9 -11 -30 -7 -55 3
-27 1 -43 -9 -51 -8 -6 -13 -17 -13 -23 1 -6 -3 -24 -10 -41 -6 -16 -14 -36
-16 -43 -10 -27 -27 -11 -22 21 10 60 36 150 46 160 6 6 11 32 11 58 0 26 5
51 10 54 6 3 10 17 10 31 0 14 7 27 15 30 8 4 15 14 15 23 0 9 23 41 50 71 28
30 50 58 50 62 0 4 5 19 12 35 6 15 10 33 9 39 -1 7 8 33 19 60 36 82 30 208
-12 266 -10 15 -9 20 7 32 20 15 20 15 -1 16 -11 0 -32 -12 -46 -27z m-158
-494 c0 -5 -11 -9 -25 -9 -28 0 -34 16 -7 23 20 4 32 -1 32 -14z"/>
<path d="M3067 1214 c-8 -8 1 -24 14 -24 5 0 9 7 9 15 0 15 -12 20 -23 9z"/>
<path d="M4065 1198 c-53 -29 -85 -73 -123 -169 -11 -28 -32 -144 -53 -291
-18 -130 4 -380 42 -478 39 -96 83 -123 137 -81 23 17 23 18 6 36 -17 17 -17
17 4 11 25 -8 28 1 7 27 -13 19 -13 29 6 75 50 123 48 117 81 327 13 81 14
246 3 324 -11 73 -53 153 -85 161 -25 6 -25 6 -4 18 18 9 25 7 46 -16 55 -61
62 -100 61 -327 -1 -209 -6 -272 -21 -287 -6 -6 -8 -23 -5 -38 3 -15 0 -31 -6
-34 -6 -4 -11 -20 -11 -36 0 -16 -4 -32 -10 -35 -5 -3 -10 -17 -10 -30 0 -13
-5 -27 -10 -30 -6 -4 -10 -12 -8 -18 1 -7 -2 -22 -6 -35 -4 -13 -5 -26 -2 -29
8 -8 36 24 36 41 0 9 5 16 10 16 6 0 10 11 10 24 0 14 5 28 11 32 6 3 9 17 6
30 -2 13 0 24 5 24 5 0 8 17 7 38 -2 27 1 36 10 34 11 -2 12 8 9 43 -4 33 -2
45 8 45 9 0 13 20 13 78 1 42 1 129 2 192 1 129 -3 177 -19 235 -17 59 -46
101 -83 119 -38 19 -38 19 -64 4z m26 -294 c14 -17 19 -234 7 -319 -9 -65 -33
-114 -57 -112 -11 0 -18 4 -15 8 2 4 -3 12 -11 19 -9 8 -12 22 -8 41 3 18 0
41 -8 55 -11 21 -11 33 1 72 7 26 15 62 18 80 2 18 10 32 18 32 10 0 12 5 5
18 -4 9 -13 32 -19 51 -10 30 -9 36 11 52 27 23 41 24 58 3z m-101 -64 c0 -5
-4 -10 -10 -10 -5 0 -10 5 -10 10 0 6 5 10 10 10 6 0 10 -4 10 -10z m-5 -102
c-4 -35 -10 -67 -13 -73 -3 -5 -7 -33 -9 -61 -4 -62 29 -147 64 -165 31 -17
29 -39 -3 -39 -37 0 -62 33 -80 105 -21 87 2 295 33 295 12 0 14 -11 8 -62z"/>
<path d="M2450 1185 c0 -4 7 -19 15 -34 8 -16 15 -44 15 -62 0 -46 5 -77 13
-85 4 -4 7 -3 8 2 0 5 2 29 4 54 2 31 -3 58 -17 88 -18 36 -38 55 -38 37z"/>
<path d="M382 1116 c-27 -76 -28 -90 -4 -77 10 5 26 34 35 64 20 65 20 64 4
70 -9 3 -20 -16 -35 -57z"/>
<path d="M3085 1113 c-4 -15 -10 -37 -15 -48 -5 -11 -11 -41 -14 -66 -3 -26
-17 -72 -31 -102 -14 -31 -25 -60 -25 -66 0 -5 -3 -11 -7 -13 -12 -5 -63 -83
-63 -95 0 -7 -8 -14 -19 -18 -10 -3 -26 -14 -35 -24 -28 -31 1 -37 31 -7 14
14 29 26 34 26 13 0 82 99 107 152 24 51 41 113 47 168 2 19 7 51 11 71 7 44
-12 64 -21 22z"/>
<path d="M346 1004 c-3 -9 -6 -31 -6 -50 0 -24 -5 -34 -15 -34 -20 0 -19 -7 5
-32 22 -24 26 -38 10 -38 -18 0 -10 -29 10 -35 11 -4 17 -11 14 -17 -7 -11 54
-67 74 -68 6 0 12 -4 12 -10 0 -5 7 -10 15 -10 8 0 15 -4 15 -9 0 -13 57 -31
75 -24 9 3 32 -7 53 -23 76 -56 122 -116 122 -159 0 -16 6 -25 15 -25 10 0 15
10 15 30 0 17 -4 30 -10 30 -5 0 -10 9 -10 20 0 42 -28 89 -62 103 -18 8 -46
26 -61 41 -16 14 -33 24 -38 21 -5 -4 -9 1 -9 10 0 11 -5 15 -14 12 -8 -3 -17
1 -20 9 -3 8 -12 14 -19 14 -8 0 -20 6 -26 14 -7 8 -25 18 -41 21 -22 5 -30
14 -35 37 -4 18 -15 32 -27 36 -14 3 -16 7 -7 12 9 6 6 15 -10 36 -15 19 -18
31 -11 38 12 12 13 66 1 66 -5 0 -12 -7 -15 -16z"/>
<path d="M3817 869 c-12 -42 -8 -91 6 -87 15 5 22 72 9 94 -8 14 -10 13 -15
-7z"/>
<path d="M3105 680 c-6 -10 1 -14 48 -24 19 -5 27 -13 27 -27 0 -11 5 -29 10
-40 15 -27 -2 -24 -30 6 -14 15 -35 25 -51 25 -29 0 -52 21 -31 28 7 2 10 8 7
12 -5 8 -36 -5 -93 -41 -25 -15 -42 -51 -42 -85 0 -46 75 -54 198 -21 30 8 48
20 58 38 17 33 8 91 -18 118 -20 22 -72 29 -83 11z"/>
<path d="M1984 542 c-6 -31 -8 -86 -5 -122 6 -62 7 -59 14 54 4 66 6 120 4
122 -1 2 -7 -23 -13 -54z"/>
<path d="M1522 480 c0 -14 2 -19 5 -12 2 6 2 18 0 25 -3 6 -5 1 -5 -13z"/>
<path d="M1522 425 c0 -16 2 -22 5 -12 2 9 2 23 0 30 -3 6 -5 -1 -5 -18z"/>
<path d="M4624 229 c-27 -13 -54 -60 -54 -92 0 -14 12 -39 26 -56 21 -25 34
-31 64 -31 l39 0 -3 55 c-2 36 -9 62 -21 75 -16 18 -17 23 -5 30 8 6 18 10 23
10 4 0 7 5 7 10 0 13 -49 12 -76 -1z"/>
<path d="M4744 175 c-3 -8 -1 -27 4 -42 10 -27 10 -26 11 15 1 43 -5 54 -15
27z"/>
</g>
</svg>
